<svg version="1" xmlns="http://www.w3.org/2000/svg" width="682.667" height="682.667" viewBox="0 0 512.000000 512.000000"><path d="M82.7 1.6c-39.2 7.1-70 36.1-80 75.1L.5 85.5v341l2.3 9c3 12 11.6 29.4 19.2 38.8 14 17.4 32.7 29.3 54.7 35l8.8 2.2h341l9-2.3c12-3 29.4-11.6 38.8-19.2 17.4-14 29.3-32.7 35-54.7l2.2-8.8v-341l-2.3-9c-3-12-11.6-29.4-19.2-38.8-13.8-17.2-32.2-29-54.2-34.9L427.5.5 259 .4C117.6.2 89.3.4 82.7 1.6zm205.3 89c12.2 2 31.4 8.4 41 13.5 29.9 16.2 48.4 43.4 50.7 74.6l.6 8.3h-66l-1.2-5.5c-1.8-8-6.5-16.7-11.7-21.5-20-18.4-67.3-18.5-86.2-.1-6.4 6.2-8.5 11.2-9 21.2-.5 10.9 1.7 16.6 9.2 23.8 9.8 9.2 20.2 13.2 57.5 22.1 31.3 7.4 41.6 10.7 56.6 18 40.8 19.6 59.9 52.7 54.5 94-5 38.7-29.8 65.7-72 78.3-40.6 12.2-97.3 8.7-130.4-8-32.9-16.6-52-45.6-55.2-84.1l-.7-8.2h67l1.2 6.9c4.3 24.2 23 39 53 42 30.1 3.1 55.4-6.5 64.1-24.3 8.9-18 2.4-34.8-17.3-44.5-11-5.4-18.6-7.7-54-16.7-30-7.5-43.7-11.9-55.2-17.7-26.6-13.3-42.9-32.6-48-56.6-1.9-9.2-1.9-28.8 0-37.9 6.4-30.6 27.5-54.6 60.1-68.3 13.3-5.6 26.6-8.7 48.4-11.3 6.9-.8 33.7.4 43 2z"/></svg>